<?xml version="1.0" encoding="UTF-8" standalone="no"?><!DOCTYPE svg PUBLIC "-//W3C//DTD SVG 1.1//EN" "http://www.w3.org/Graphics/SVG/1.1/DTD/svg11.dtd"><svg width="100%" height="100%" viewBox="0 0 100 100" version="1.1" xmlns="http://www.w3.org/2000/svg" xmlns:xlink="http://www.w3.org/1999/xlink" xml:space="preserve" xmlns:serif="http://www.serif.com/" style="fill-rule:evenodd;clip-rule:evenodd;stroke-miterlimit:1.5;"><g id="Layer3"><path d="M60.899,76.324l-37.223,-37.223l-24.093,24.093l0,37.223l37.223,0l24.093,-24.093Zm-60.482,-12.785l0,36.044l36.044,0l23.259,-23.259l-36.044,-36.044l-23.259,23.259Z" style="fill:none;"/><path d="M21.869,41.497c-0.099,1.411 0.062,2.985 0.483,4.679c1.412,5.689 5.729,12.824 12.189,19.283c6.459,6.46 13.594,10.777 19.283,12.189c1.694,0.421 3.268,0.582 4.679,0.483l-21.869,21.869l-36.634,0l0,-36.634l21.869,-21.869Zm37.447,22.328c2.399,4.772 3.132,8.956 1.747,11.489c-1.658,0.972 -4.014,0.988 -6.737,0.312c-5.411,-1.343 -12.168,-5.496 -18.312,-11.64c-6.144,-6.144 -10.297,-12.901 -11.64,-18.312c-0.676,-2.723 -0.66,-5.079 0.312,-6.737c2.533,-1.385 6.717,-0.652 11.489,1.747c-1.514,1.198 -3.052,2.549 -4.629,4.126c-0.881,0.88 0.168,3.359 2.34,5.531l0.027,0.026c-0.388,0.353 -0.774,0.721 -1.159,1.106c-0.88,0.88 0.169,3.358 2.341,5.53c2.172,2.172 4.651,3.221 5.531,2.341c1.455,-1.455 -0.268,0.36 -0.268,0.36c-0.475,1.054 0.558,3.286 2.526,5.253c2.172,2.172 4.65,3.221 5.531,2.341l1.214,-1.214l0.03,0.03c2.172,2.172 4.651,3.221 5.531,2.34c1.577,-1.577 2.928,-3.115 4.126,-4.629Z"/><path d="M46.533,33.92c3.477,-5.478 6.976,-11.013 13.376,-17.414" style="fill:#fff;stroke:#000;stroke-width:2.5px;"/><path d="M49.659,66.114c2.172,2.172 4.651,3.221 5.531,2.34c5.258,-5.258 8.01,-10.088 10.894,-14.992" style="fill:none;stroke:#000;stroke-width:2.5px;"/><path d="M40.358,59.704c-0.475,1.054 0.558,3.286 2.526,5.253c2.172,2.172 4.65,3.221 5.531,2.341l1.214,-1.214c12.042,-12.042 21.279,-13.408 33.865,-25.993" style="fill:none;stroke:#000;stroke-width:2.5px;"/><path d="M73.364,26.606c2.172,2.172 3.221,4.65 2.341,5.53c-0.88,0.881 -3.359,-0.168 -5.531,-2.34c-2.172,-2.173 -3.221,-4.651 -2.341,-5.531c0.881,-0.88 3.359,0.169 5.531,2.341Z" style="fill:none;stroke:#000;stroke-width:2.5px;stroke-linecap:round;stroke-linejoin:round;"/><path d="M65.493,18.735c2.172,2.172 3.221,4.65 2.34,5.53c-0.88,0.88 -3.358,-0.169 -5.53,-2.341c-2.172,-2.172 -3.221,-4.65 -2.341,-5.53c0.88,-0.881 3.358,0.168 5.531,2.341Z" style="fill:none;stroke:#000;stroke-width:2.5px;stroke-linecap:round;stroke-linejoin:round;"/><path d="M33.886,50.341c-2.172,-2.172 -3.221,-4.651 -2.34,-5.531c10.234,-10.235 18.846,-10.974 29.542,-21.671" style="fill:none;stroke:#000;stroke-width:2.5px;"/><path d="M81.235,34.477c2.173,2.173 3.221,4.651 2.341,5.531c-0.88,0.88 -3.358,-0.169 -5.53,-2.341c-2.172,-2.172 -3.221,-4.65 -2.341,-5.531c0.88,-0.88 3.358,0.169 5.53,2.341Z" style="fill:none;stroke:#000;stroke-width:2.5px;stroke-linecap:round;stroke-linejoin:round;"/><path d="M66.619,25.48c2.172,2.172 3.221,4.65 2.341,5.53c-0.881,0.88 -3.359,-0.168 -5.531,-2.341c-2.172,-2.172 -3.221,-4.65 -2.341,-5.53c0.881,-0.88 3.359,0.169 5.531,2.341Z" style="fill:none;stroke:#000;stroke-width:2.5px;stroke-linecap:round;stroke-linejoin:round;"/><path d="M76.831,38.882c-11.888,11.888 -24.83,9.087 -36.205,20.462c-0.88,0.88 -3.359,-0.169 -5.531,-2.341c-2.172,-2.172 -3.221,-4.65 -2.341,-5.53c11.375,-11.375 24.317,-8.574 36.206,-20.463" style="fill:none;stroke:#000;stroke-width:2.5px;"/><path d="M74.49,33.351c2.172,2.172 3.221,4.65 2.341,5.531c-0.88,0.88 -3.358,-0.169 -5.53,-2.341c-2.173,-2.172 -3.222,-4.651 -2.341,-5.531c0.88,-0.88 3.358,0.169 5.53,2.341Z" style="fill:none;stroke:#000;stroke-width:2.5px;stroke-linecap:round;stroke-linejoin:round;"/><path d="M72.618,19.481c2.172,2.172 3.221,4.65 2.341,5.53c-0.88,0.88 -3.359,-0.169 -5.531,-2.341c-2.172,-2.172 -3.221,-4.65 -2.341,-5.53c0.881,-0.881 3.359,0.168 5.531,2.341Z" style="fill:none;stroke:#000;stroke-width:2.5px;stroke-linecap:round;stroke-linejoin:round;"/><path d="M80.489,27.352c2.173,2.172 3.221,4.65 2.341,5.53c-0.88,0.881 -3.358,-0.168 -5.53,-2.34c-2.172,-2.173 -3.221,-4.651 -2.341,-5.531c0.88,-0.88 3.358,0.169 5.53,2.341Z" style="fill:none;stroke:#000;stroke-width:2.5px;stroke-linecap:round;stroke-linejoin:round;"/></g></svg>