<?xml version="1.0" encoding="UTF-8" standalone="no"?><!DOCTYPE svg PUBLIC "-//W3C//DTD SVG 1.1//EN" "http://www.w3.org/Graphics/SVG/1.1/DTD/svg11.dtd"><svg width="100%" height="100%" viewBox="0 0 100 100" version="1.1" xmlns="http://www.w3.org/2000/svg" xmlns:xlink="http://www.w3.org/1999/xlink" xml:space="preserve" xmlns:serif="http://www.serif.com/" style="fill-rule:evenodd;clip-rule:evenodd;stroke-linecap:round;stroke-linejoin:round;stroke-miterlimit:1.5;"><g id="Layer3"><path d="M60.899,76.324l-37.223,-37.223l-24.093,24.093l0,37.223l37.223,0l24.093,-24.093Zm-60.482,-12.785l0,36.044l36.044,0l23.259,-23.259l-36.044,-36.044l-23.259,23.259Z" style="fill:none;"/><path d="M75.246,42.271l-22.807,22.807c-1.959,1.959 -7.474,-0.375 -12.308,-5.209c-4.834,-4.834 -7.168,-10.349 -5.209,-12.308c0,0 22.807,-22.807 22.807,-22.807" style="fill:none;stroke:#000;stroke-width:3.46px;"/><path d="M21.869,41.497c-0.099,1.411 0.062,2.985 0.483,4.679c1.412,5.689 5.729,12.824 12.189,19.283c6.459,6.46 13.594,10.777 19.283,12.189c1.694,0.421 3.268,0.582 4.679,0.483l-21.869,21.869l-36.634,0l0,-36.634l21.869,-21.869Zm35.401,18.75c3.963,6.214 5.516,11.918 3.793,15.067c-1.658,0.972 -4.014,0.988 -6.737,0.312c-5.411,-1.343 -12.168,-5.496 -18.312,-11.64c-6.144,-6.144 -10.297,-12.901 -11.64,-18.312c-0.676,-2.723 -0.66,-5.079 0.312,-6.737c3.149,-1.723 8.853,-0.17 15.067,3.793l-4.831,4.831c-1.959,1.959 0.375,7.474 5.209,12.308c4.834,4.834 10.349,7.168 12.308,5.209l4.831,-4.831Z"/><path d="M70.037,29.963c4.834,4.834 7.168,10.349 5.209,12.308c-1.959,1.959 -7.474,-0.376 -12.307,-5.21c-4.834,-4.833 -7.169,-10.348 -5.21,-12.307c1.959,-1.959 7.474,0.375 12.308,5.209Z" style="fill:none;stroke:#000;stroke-width:3.46px;"/></g></svg>