<?xml version="1.0" encoding="UTF-8" standalone="no"?>
<!DOCTYPE svg PUBLIC "-//W3C//DTD SVG 1.1//EN" "http://www.w3.org/Graphics/SVG/1.1/DTD/svg11.dtd">
<svg width="100%" height="100%" viewBox="0 0 100 100" version="1.1" xmlns="http://www.w3.org/2000/svg" xmlns:xlink="http://www.w3.org/1999/xlink" xml:space="preserve" xmlns:serif="http://www.serif.com/" style="fill-rule:evenodd;clip-rule:evenodd;stroke-linejoin:round;stroke-miterlimit:2;">
    <g id="Core">
        <path d="M0,100L0,0L100,0L100,100L0,100ZM50.004,20.047C33.753,20.249 20.643,33.575 20.643,49.996C20.643,66.417 33.753,79.751 50.004,79.953L50.518,79.942C50.851,79.932 51.184,79.917 51.517,79.896C52.401,79.84 53.283,79.745 54.159,79.61C55.029,79.476 55.894,79.303 56.749,79.091C57.616,78.876 58.474,78.622 59.318,78.329C60.076,78.066 60.823,77.772 61.557,77.447C62.3,77.119 63.03,76.76 63.743,76.372C65.201,75.578 66.592,74.661 67.898,73.635C69.299,72.534 70.601,71.307 71.786,69.973C72.963,68.648 74.023,67.218 74.95,65.704C75.812,64.294 76.559,62.812 77.178,61.278C77.461,60.578 77.717,59.866 77.946,59.146C78.027,58.89 78.105,58.633 78.179,58.375L78.286,57.997L63.475,57.997L63.475,41.878L78.253,41.878L78.141,41.484C78.065,41.226 77.986,40.97 77.904,40.715C77.672,39.996 77.412,39.286 77.127,38.588C76.501,37.057 75.748,35.579 74.879,34.174C73.95,32.672 72.888,31.253 71.712,29.939C70.532,28.621 69.236,27.409 67.845,26.321C66.548,25.307 65.168,24.401 63.723,23.616C62.317,22.852 60.85,22.203 59.339,21.678C58.488,21.382 57.624,21.125 56.749,20.909C55.894,20.697 55.029,20.524 54.159,20.39C53.283,20.255 52.401,20.16 51.517,20.104C51.184,20.083 50.851,20.068 50.518,20.058L50.004,20.047Z"/>
    </g>
</svg>
