<svg xmlns="http://www.w3.org/2000/svg" viewBox="0 0 128.24 138.85">
  <defs>
    <style>
      .cls-1 {
        fill: #231f20;
      }

      .cls-2 {
        fill: #fff;
      }
    </style>
  </defs>
  <title>skelington</title>
  <g id="Layer_7_copy" data-name="Layer 7 copy">
    <path class="cls-1" d="M480.75,375.39c-2.33-.44-3.9.16-4.95,1.35a2.84,2.84,0,0,1-2.57.95,10.94,10.94,0,0,0-1.54-.11,10.47,10.47,0,0,0-2.08.21,2.63,2.63,0,0,1-2.58-.91c-1-1.28-2.65-1.95-5.08-1.49-3.77.71-4.9,2.69-4.23,5.8.21,1,2.47,2.36,3,3.09,1.11,1.38.77,2.62,2.66,2.51a2.56,2.56,0,0,0,.29,1.2c.88,1.58,3.41,2,5.65.9a6.79,6.79,0,0,0,2.18-1.52,7,7,0,0,0,2.18,1.52c2.25,1.08,4.78.68,5.65-.9a2.34,2.34,0,0,0,.29-1.2c1.45-.08,1.25-1.23,2.27-2.51.58-.73,2.83-2.11,3-3.09C485.66,378.08,484.52,376.1,480.75,375.39Zm-13.59,11.94a1.51,1.51,0,0,1-2-.5,1.33,1.33,0,0,1,.88-1.71,1.51,1.51,0,0,1,2,.49A1.34,1.34,0,0,1,467.16,387.33Zm4.41-3.05c-2.68,0-4.86-1.19-4.86-2.65s2.18-2.65,4.86-2.65,4.86,1.19,4.86,2.65S474.25,384.28,471.57,384.28Zm6.38,2.55a1.52,1.52,0,0,1-2,.5,1.34,1.34,0,0,1-.88-1.72,1.51,1.51,0,0,1,2-.49A1.33,1.33,0,0,1,478,386.83Z" transform="translate(-407.44 -292.17)"/>
  </g>
  <g id="Layer_2" data-name="Layer 2">
    <path class="cls-1" d="M472.94,340.11a46.6,46.6,0,0,0,.24,10.75,104.27,104.27,0,0,1-.26,10.75c-.13,3.58-.59,7.17-.23,10.75.14,1.79.35,3.58.32,5.38,0,.89-.16,1.79-.26,2.68a10.24,10.24,0,0,0-.11,1.35,2.07,2.07,0,0,0,.3,1.34,1.64,1.64,0,1,1-2.77,0,2.07,2.07,0,0,0,.3-1.34,12.28,12.28,0,0,0-.11-1.35c-.1-.89-.25-1.79-.26-2.68,0-1.8.18-3.59.32-5.38.36-3.58-.1-7.17-.23-10.75a104.27,104.27,0,0,1-.26-10.75,46.6,46.6,0,0,0,.24-10.75,1.39,1.39,0,1,1,2.77,0Z" transform="translate(-407.44 -292.17)"/>
    <path class="cls-1" d="M487.08,348a2.61,2.61,0,0,0-1.18-1.23,8.41,8.41,0,0,0-1.83-.81A20.43,20.43,0,0,0,480,345a34.63,34.63,0,0,0-4.19-.34c-1.41,0-2.81.07-4.21,0a37.72,37.72,0,0,0-8.43.2,20.42,20.42,0,0,0-4.05,1,11.85,11.85,0,0,0-1.82.9,4.26,4.26,0,0,0-1.31,1.25.94.94,0,0,1-1.28.32.93.93,0,0,1-.32-1.27,1,1,0,0,1,.18-.22,9.84,9.84,0,0,1,4.2-2A42.9,42.9,0,0,1,463,344c2.83-.51,5.68-.89,8.57-1.14a29.86,29.86,0,0,1,4.32.29c1.43.17,2.86.33,4.29.57a33.47,33.47,0,0,1,4.25,1,16.08,16.08,0,0,1,2.09.85,5.51,5.51,0,0,1,2,1.54l.06.07a.87.87,0,0,1-1.39,1A.94.94,0,0,1,487.08,348Z" transform="translate(-407.44 -292.17)"/>
    <path class="cls-1" d="M486.2,353.84a2.51,2.51,0,0,0-1.07-1.2,7.47,7.47,0,0,0-1.71-.81,19.56,19.56,0,0,0-3.84-.92,31,31,0,0,0-4-.33c-1.34,0-2.67.06-4,0a34.53,34.53,0,0,0-8,.2,18.25,18.25,0,0,0-3.83,1.07,10.53,10.53,0,0,0-1.7.89,4,4,0,0,0-1.19,1.22.93.93,0,1,1-1.63-.9.84.84,0,0,1,.18-.23,9.24,9.24,0,0,1,4-2,39.15,39.15,0,0,1,4-.92c2.69-.5,5.4-.89,8.15-1.13a25.73,25.73,0,0,1,4.11.28c1.36.18,2.73.34,4.08.58a30.55,30.55,0,0,1,4,1,13.12,13.12,0,0,1,2,.85,5.48,5.48,0,0,1,1.88,1.53l.05.07a.87.87,0,0,1-1.41,1A.79.79,0,0,1,486.2,353.84Z" transform="translate(-407.44 -292.17)"/>
    <path class="cls-1" d="M482.44,363.67a2.92,2.92,0,0,0-1.8-1.85,11.4,11.4,0,0,0-2.87-1,17.39,17.39,0,0,0-3.06-.36c-1,0-2.07.05-3.1,0a20.16,20.16,0,0,0-6.2.24,10.83,10.83,0,0,0-2.86,1.08,4.08,4.08,0,0,0-1.87,2,.94.94,0,1,1-1.78-.59.85.85,0,0,1,.17-.31l0,0a7.3,7.3,0,0,1,3-2,23.13,23.13,0,0,1,3.14-1,47.45,47.45,0,0,1,6.4-1.18,15.42,15.42,0,0,1,3.25.3c1.08.18,2.15.35,3.21.62a17.63,17.63,0,0,1,3.14,1.07A6.65,6.65,0,0,1,484,363l0,.05a.87.87,0,0,1-.27,1.21.86.86,0,0,1-1.2-.27A.89.89,0,0,1,482.44,363.67Z" transform="translate(-407.44 -292.17)"/>
    <path class="cls-1" d="M460.9,363.18a2.72,2.72,0,0,0,.06.75,2.93,2.93,0,0,0,.4.63,2,2,0,0,0,.6.48,2.18,2.18,0,0,0,.72.29l.39.11.41,0a2.89,2.89,0,0,0,.83,0,4.86,4.86,0,0,0,.84-.12,8,8,0,0,0,.82-.18,7.55,7.55,0,0,0,3.24-1.2,3.62,3.62,0,0,0,1.55-2.89,1,1,0,0,1,.92-1,1,1,0,0,1,1,.92.93.93,0,0,1-.14.54l0,.07a11.2,11.2,0,0,1-2.73,3.1,10.52,10.52,0,0,1-3.43,2,4.88,4.88,0,0,1-1,.18,8.9,8.9,0,0,1-2.06-.1l-.51-.09-.51-.17a4.68,4.68,0,0,1-1.83-1.15,8.62,8.62,0,0,1-.67-.89c-.17-.32-.33-.66-.54-1a.9.9,0,1,1,1.52-1,.87.87,0,0,1,.14.53Z" transform="translate(-407.44 -292.17)"/>
    <path class="cls-1" d="M472.3,361.18a3.64,3.64,0,0,0,.06.8c.11.25.23.49.36.73l.51.66c.21.2.43.37.65.56l.72.46a5.53,5.53,0,0,0,.79.34c.55.16,1.11.25,1.65.39a4.83,4.83,0,0,0,3.34.37,2.42,2.42,0,0,0,1.78-2.4,1,1,0,1,1,1.95-.18.93.93,0,0,1-.11.55l-.08.14a5.68,5.68,0,0,1-3.24,2.74,9.87,9.87,0,0,1-4.05.57,5.6,5.6,0,0,1-1.89-.82c-.28-.2-.57-.37-.85-.55l-.81-.62-.74-.71-.65-.8c-.18-.3-.35-.61-.54-.91a6.56,6.56,0,0,0-.51-1,.9.9,0,0,1,1.54-.95.93.93,0,0,1,.13.53Z" transform="translate(-407.44 -292.17)"/>
    <path class="cls-1" d="M457,354a1.8,1.8,0,0,0,.87,1.52,4.67,4.67,0,0,0,1.89.73,12.44,12.44,0,0,0,4.3-.08,16,16,0,0,0,4.23-1.17,4.46,4.46,0,0,0,2.54-3.11,1,1,0,1,1,1.75.61l0,.06a10.38,10.38,0,0,1-3.81,3.25,13,13,0,0,1-4.42,1.78,12,12,0,0,1-4.82-.07,7.35,7.35,0,0,1-2.33-1,5.78,5.78,0,0,1-1.79-2.1l-.05-.1a.89.89,0,0,1,1.59-.81A.9.9,0,0,1,457,354Z" transform="translate(-407.44 -292.17)"/>
    <path class="cls-1" d="M472.26,352a2.34,2.34,0,0,0,.82,1.71,6.36,6.36,0,0,0,1.72,1.21,15.1,15.1,0,0,0,4.12,1.41c.73.11,1.46.1,2.19.15a10.58,10.58,0,0,0,2.18-.08c1.4-.27,2.73-1.28,2.8-2.51a1,1,0,1,1,1.92.1,1,1,0,0,1-.15.47l-.06.1a6.64,6.64,0,0,1-4.3,2.74,10.17,10.17,0,0,1-2.38.43,9.61,9.61,0,0,1-2.39-.19,12.81,12.81,0,0,1-4.56-1.45,8.88,8.88,0,0,1-3.54-3.64l0-.08a.89.89,0,0,1,1.57-.83A.86.86,0,0,1,472.26,352Z" transform="translate(-407.44 -292.17)"/>
    <path class="cls-1" d="M455.85,347.48a3.25,3.25,0,0,0,.78,2.18,5.5,5.5,0,0,0,1.85,1.52,9.68,9.68,0,0,0,4.78,1,12.75,12.75,0,0,0,4.87-.9,4.7,4.7,0,0,0,2.66-3.85,1,1,0,0,1,1.9.06.88.88,0,0,1-.1.4l0,.07a10.26,10.26,0,0,1-3.94,4.15,9.58,9.58,0,0,1-5.33,1.7,11.23,11.23,0,0,1-5.44-1.47,8.5,8.5,0,0,1-2.19-1.87,11,11,0,0,1-1.46-2.6l0-.05a.87.87,0,0,1,.47-1.15.86.86,0,0,1,1.14.47A.74.74,0,0,1,455.85,347.48Z" transform="translate(-407.44 -292.17)"/>
    <path class="cls-1" d="M488.71,343.74c.05-.11-.28-.32-.58-.4a5.11,5.11,0,0,0-1-.18,12.61,12.61,0,0,0-2.13-.05,17.21,17.21,0,0,0-2.15.22c-.72.13-1.42.31-2.14.37a19.09,19.09,0,0,0-4.34.27,10.16,10.16,0,0,0-2,.67,5.21,5.21,0,0,0-.9.5c-.26.19-.53.43-.56.61a1,1,0,1,1-2.06-.4,1,1,0,0,1,.42-.66l.32-.23a4.66,4.66,0,0,1,1.28-.58l1.14-.3,2.2-.5c1.44-.37,2.87-.79,4.32-1.2a12.07,12.07,0,0,1,2.25-.06H485c.75,0,1.49,0,2.26.09.38,0,.77.07,1.17.13a3.43,3.43,0,0,1,1.44.44l1,.6a1.53,1.53,0,1,1-2.16.65Z" transform="translate(-407.44 -292.17)"/>
    <path class="cls-1" d="M452.64,342.43a3.36,3.36,0,0,1,1.46-.43c.42-.06.81-.1,1.21-.13.78,0,1.55-.06,2.31-.08h2.3a12.48,12.48,0,0,1,2.29.06c1.49.42,3,.84,4.44,1.22l2.25.5c.38.09.76.19,1.17.31a4.21,4.21,0,0,1,1.3.58l.3.2a1,1,0,1,1-1.18,1.71,1,1,0,0,1-.42-.62c0-.18-.32-.42-.59-.61a4.91,4.91,0,0,0-.93-.51,10.93,10.93,0,0,0-2.1-.67,20.12,20.12,0,0,0-4.46-.29c-.73-.06-1.45-.24-2.19-.37a18.24,18.24,0,0,0-2.2-.23,13.31,13.31,0,0,0-2.19,0,5.68,5.68,0,0,0-1,.18c-.3.08-.65.29-.61.4a1.44,1.44,0,1,1-2.06-.72Z" transform="translate(-407.44 -292.17)"/>
    <path class="cls-1" d="M447,348c-.43.36-.75.54-1.06.77s-.59.44-.88.66c-.58.44-1.13.91-1.7,1.36s-1.16.86-1.78,1.24-1.25.72-1.85,1.11-1.18.83-1.8,1.21-1.24.73-1.84,1.12-1.19.83-1.77,1.27c-.3.22-.57.47-.88.69-.16.11-.3.23-.46.35l-.54.38a1,1,0,0,1-1.43-.27,1,1,0,0,1,.26-1.43.92.92,0,0,1,.49-.18l.44-.07.5-.15c.32-.11.66-.25,1-.39a14.83,14.83,0,0,0,1.89-1c.6-.39,1.17-.82,1.76-1.23l1.77-1.21c.57-.43,1.12-.89,1.67-1.35s1.14-.87,1.72-1.27,1.18-.8,1.73-1.25a8.67,8.67,0,0,0,.79-.69,1.89,1.89,0,0,0,.48-.73,1,1,0,1,1,1.67.93Z" transform="translate(-407.44 -292.17)"/>
    <path class="cls-1" d="M472.27,347.48a3.24,3.24,0,0,0,.77,2.18,5.48,5.48,0,0,0,1.85,1.52,7,7,0,0,0,2.33.76c.82.1,1.64.08,2.46.1a8.18,8.18,0,0,0,4.88-.78,4.91,4.91,0,0,0,2.65-3.87.94.94,0,0,1,1-.9,1,1,0,0,1,.9,1,1,1,0,0,1-.1.38l0,.06a9.65,9.65,0,0,1-4,4.13,14,14,0,0,1-5.31,1.82,8.22,8.22,0,0,1-2.82-.46,12.31,12.31,0,0,1-2.62-1.12,8.67,8.67,0,0,1-2.2-1.86,10.61,10.61,0,0,1-1.45-2.6l0-.05a.89.89,0,0,1,.47-1.15.87.87,0,0,1,1.15.47A1,1,0,0,1,472.27,347.48Z" transform="translate(-407.44 -292.17)"/>
    <path class="cls-1" d="M484,357.79c-.18-.82-1.19-1.53-2.2-1.93a14.21,14.21,0,0,0-3.26-.93,22,22,0,0,0-3.44-.35c-1.16,0-2.32.06-3.47,0a25.22,25.22,0,0,0-6.94.21,13.42,13.42,0,0,0-3.26,1.08,4.76,4.76,0,0,0-2.29,2,.93.93,0,1,1-1.54-1h0a7.84,7.84,0,0,1,3.38-2,28.09,28.09,0,0,1,3.51-.95,62.34,62.34,0,0,1,7.11-1.16,20.65,20.65,0,0,1,3.6.29c1.19.18,2.38.35,3.56.6a22.34,22.34,0,0,1,3.51,1,7.08,7.08,0,0,1,3.25,2.36l0,0a.87.87,0,1,1-1.42,1A1.06,1.06,0,0,1,484,357.79Z" transform="translate(-407.44 -292.17)"/>
    <path class="cls-1" d="M459.18,358a1.67,1.67,0,0,0,.63,1.45,3.3,3.3,0,0,0,1.57.76,8.66,8.66,0,0,0,3.75-.13,10.56,10.56,0,0,0,3.68-1.17,3.92,3.92,0,0,0,2-3,1,1,0,0,1,1-.95,1,1,0,0,1,1,1,.91.91,0,0,1-.14.49l-.05.08a10.34,10.34,0,0,1-3.2,3.19,11.69,11.69,0,0,1-3.87,1.92,9.38,9.38,0,0,1-4.4-.14,5.5,5.5,0,0,1-2.06-1.07,6.35,6.35,0,0,1-1.46-2l0-.1a.9.9,0,0,1,1.62-.8A.83.83,0,0,1,459.18,358Z" transform="translate(-407.44 -292.17)"/>
    <path class="cls-1" d="M472.29,356a2.21,2.21,0,0,0,.58,1.62,5.13,5.13,0,0,0,1.4,1.22,10.29,10.29,0,0,0,3.58,1.31,8.92,8.92,0,0,0,3.81.21,2.73,2.73,0,0,0,2.22-2.46,1,1,0,1,1,1.82.46l-.08.13a6,6,0,0,1-3.71,2.75,9.27,9.27,0,0,1-4.34.4,10.64,10.64,0,0,1-4-1.72,9.05,9.05,0,0,1-1.65-1.51,11.78,11.78,0,0,1-1.27-2l0-.08a.9.9,0,0,1,1.6-.82A.94.94,0,0,1,472.29,356Z" transform="translate(-407.44 -292.17)"/>
    <path class="cls-1" d="M432.12,357.36l.35-.28.29-.19.53-.36c.34-.23.65-.47,1-.72.65-.47,1.26-1,1.9-1.46a23.44,23.44,0,0,1,2-1.33c.69-.41,1.39-.79,2.05-1.22s1.31-.9,2-1.31,1.37-.8,2-1.23,1.3-.91,1.94-1.38a7,7,0,0,1,1.1-.74,6.75,6.75,0,0,1,1.36-.49l.05,0a1,1,0,1,1,.55,2,1.09,1.09,0,0,1-.44,0,2.84,2.84,0,0,0-1,0,5.1,5.1,0,0,0-1,.36c-.71.34-1.42.69-2.09,1.09s-1.31.89-2,1.33-1.32.86-2,1.32-1.26.95-1.88,1.44-1.26.94-1.91,1.39-1.31.87-1.92,1.35a10.58,10.58,0,0,0-.89.74,3.59,3.59,0,0,0-.37.42,1.37,1.37,0,0,0-.15.21l-.05.16a1,1,0,0,1-1.84-.58.88.88,0,0,1,.31-.46Z" transform="translate(-407.44 -292.17)"/>
    <path class="cls-1" d="M431.36,360.74a1,1,0,0,1-.55.48l-.24.06-.25,0a.55.55,0,0,1-.17,0l-.84.74-1.66,1.45-3.33,2.84-3.19,3c-.53.5-1,1-1.56,1.56l-.37.4a1.8,1.8,0,0,0-.19.32c-.07.12-.13.27-.21.45s-.09.18-.16.3a1.3,1.3,0,0,1-.47.48,1,1,0,0,1-1.35-.4,1,1,0,0,1,.4-1.36c-.17.13-.11.14-.08.11a.87.87,0,0,0,.16-.14l.41-.44a3.78,3.78,0,0,1,.55-.48l.48-.28c.61-.38,1.22-.78,1.8-1.21,1.14-.89,2.26-1.82,3.35-2.77s2.07-2,3.06-3.09c.49-.52,1-1.07,1.43-1.62a10.34,10.34,0,0,0,.64-.84,1.93,1.93,0,0,1,.75-.56l.27-.14s0,0,0,0-.13,0-.35.31a.93.93,0,0,1,1.65.84Z" transform="translate(-407.44 -292.17)"/>
    <path class="cls-1" d="M416.75,373a.3.3,0,0,1-.16.19l0,0h0s.06-.09,0,0a1.07,1.07,0,0,0-.16.14l-.28.3c-.2.2-.38.4-.56.61s-.31.44-.45.67a2.53,2.53,0,0,0-.2.36c0,.07-.07.15-.05.15v.08s0,.06-.12.24a.35.35,0,1,1-.43-.55c-.11.13,0,.08,0,.06l.09-.1a.65.65,0,0,1,.19-.17,3.83,3.83,0,0,0,.29-.28c.18-.19.35-.39.53-.6s.29-.44.43-.67l.2-.34a.91.91,0,0,0,.09-.17.26.26,0,0,1,.05-.09.75.75,0,0,1,.09-.09l.06-.05h0s-.06,0-.12.15a.32.32,0,0,1,.62.18Z" transform="translate(-407.44 -292.17)"/>
    <path class="cls-1" d="M418.1,373.48c0,.3-.11.24-.12.28h0s0,0,0-.06a.89.89,0,0,0-.08.17l-.14.34c-.1.22-.18.44-.27.67s-.12.45-.17.69,0,.24-.05.37V376s0,0,0,0l0,.06c0,.05,0,.05,0,.27a.38.38,0,0,1-.51.13.38.38,0,0,1-.13-.52c0,.3.09-.25.16-.24a1.49,1.49,0,0,0,.18-.3,5.24,5.24,0,0,0,.27-.65c0-.23.1-.47.13-.7l0-.35a.49.49,0,0,0,0-.17.41.41,0,0,1,.08-.22l0-.06s0-.07-.08.21a.35.35,0,0,1,.33-.37A.34.34,0,0,1,418.1,373.48Z" transform="translate(-407.44 -292.17)"/>
    <path class="cls-1" d="M416.66,377.09a.22.22,0,0,1-.11.21l-.05,0h0s0,0,0-.06,0,.05-.06.08l-.13.2-.27.38c-.06.14-.14.27-.2.42a1.45,1.45,0,0,0-.09.22s0,.05,0,.05h0a.1.1,0,0,1,0,0s.06,0-.08.22a.25.25,0,0,1-.35,0,.24.24,0,0,1,0-.35c-.15.32.05-.17.09-.12a.61.61,0,0,0,.17-.15,2.45,2.45,0,0,0,.26-.37,2.65,2.65,0,0,0,.18-.42l.06-.21a1.05,1.05,0,0,1,0-.13.29.29,0,0,1,.13-.14l0,0h0s-.09,0-.1.18a.25.25,0,0,1,.22-.24A.23.23,0,0,1,416.66,377.09Z" transform="translate(-407.44 -292.17)"/>
    <path class="cls-1" d="M416.15,372c-.11.15-.17.13-.2.14h-.08s.07-.07,0,0a.78.78,0,0,0-.18.11l-.34.24-.67.49-.62.56-.29.31c0,.05-.13.13-.11.14l0,.07s0,.07-.18.2a.35.35,0,0,1-.27-.65c-.14.1,0,.07,0,.06l.12-.08a.89.89,0,0,1,.23-.11,2.42,2.42,0,0,0,.36-.18,5.32,5.32,0,0,0,1.24-1.08l.27-.3a1,1,0,0,0,.13-.17.59.59,0,0,1,.18-.13l.08,0h0s-.06,0-.16.12a.32.32,0,0,1,.45-.1A.31.31,0,0,1,416.15,372Z" transform="translate(-407.44 -292.17)"/>
    <path class="cls-1" d="M412.7,374.67c-.2.13-.18.05-.21.07h0s.05,0,0,0l-.19.07-.36.14a1.94,1.94,0,0,0-.33.2l-.11.12,0,.06s0,.05-.16.13a.25.25,0,0,1-.3-.19.25.25,0,0,1,.19-.3c-.11.05,0,0,0,0l.12-.06c.11,0,.15,0,.22,0a1.48,1.48,0,0,0,.36-.1,1.23,1.23,0,0,0,.29-.22l.14-.13s.09-.09.15-.09l.07,0s0-.06-.12.05a.23.23,0,0,1,.34.31Z" transform="translate(-407.44 -292.17)"/>
    <path class="cls-1" d="M413.92,376.37c-.14.2-.15.12-.17.14h0s0,0,0,0l-.15.13a3.2,3.2,0,0,0-.27.25,2.1,2.1,0,0,0-.22.3l-.06.15a.2.2,0,0,1,0,.07s0,.05-.1.18a.25.25,0,0,1-.29-.41c-.07.09,0,.05,0,0l.08-.09c.08-.1.13-.08.19-.11a1.63,1.63,0,0,0,.29-.23,1.49,1.49,0,0,0,.18-.3c0-.06,0-.11.07-.17s.05-.11.1-.14l.06,0s0-.08-.1.09a.23.23,0,0,1,.44.16Z" transform="translate(-407.44 -292.17)"/>
    <path class="cls-1" d="M411.67,372.72c-.22.1-.18,0-.22,0l0,0s.05,0,0,0l-.18,0a2.33,2.33,0,0,0-.36.08,1.36,1.36,0,0,0-.33.14l-.13.1,0,.05s0,.06-.17.1a.25.25,0,1,1,0-.5c-.11,0,0,0,0,0l.11,0c.12,0,.15,0,.22,0a.92.92,0,0,0,.66-.21l.14-.11s.1-.06.16-.06h.07s.06-.05-.13,0a.23.23,0,0,1,.29.36Z" transform="translate(-407.44 -292.17)"/>
    <path class="cls-1" d="M410,373.26c-.14.13-.13.06-.16.08h0s0,0,0,0l-.16.1-.31.19c-.09.08-.19.14-.28.23l-.1.13s0,0-.15.19a.2.2,0,1,1-.15-.37c-.08.07,0,0,.09-.06s.13-.05.2-.07a1.82,1.82,0,0,0,.31-.16,1,1,0,0,0,.25-.25l.11-.14s.33-.2.1-.07a.18.18,0,0,1,.25-.05A.18.18,0,0,1,410,373.26Z" transform="translate(-407.44 -292.17)"/>
    <path class="cls-1" d="M410.88,375.5c-.14.14-.14.07-.16.09h0s0,0,0,0l-.17.1-.32.21a2.26,2.26,0,0,0-.29.25.64.64,0,0,0-.1.13s0,.06-.16.2a.2.2,0,0,1-.16-.36c-.08.07.05,0,.1-.07s.14-.05.2-.08a1.32,1.32,0,0,0,.33-.18,1.28,1.28,0,0,0,.26-.26l.11-.15c0-.05.34-.2.11-.07a.18.18,0,0,1,.31.19Z" transform="translate(-407.44 -292.17)"/>
    <path class="cls-1" d="M409.24,376.76c-.18.15-.15.06-.18.09s0,0,0,0-.07,0-.09,0a.69.69,0,0,0-.22.14c-.06.06-.09.15-.17.2s-.09.11-.21.18a.07.07,0,0,1-.1,0s0-.05,0-.08l0,0s.09-.12.15-.18.14-.1.2-.16a.65.65,0,0,0,.16-.21s0-.06.09-.13a.34.34,0,0,1,.11-.05s.08-.08-.06,0a.18.18,0,0,1,.25-.05A.18.18,0,0,1,409.24,376.76Z" transform="translate(-407.44 -292.17)"/>
    <path class="cls-1" d="M408.4,374.39c-.18.15-.15.06-.18.08s0,0,0,0-.07,0-.09,0a.8.8,0,0,0-.22.13c0,.05-.08.14-.15.18a1.5,1.5,0,0,1-.21.17.07.07,0,0,1-.1,0,.06.06,0,0,1,0-.07l0,0a1.17,1.17,0,0,1,.14-.17c0-.07.13-.09.19-.14a.7.7,0,0,0,.15-.2s0-.06.1-.13l.1-.05s.08-.07-.07.05a.19.19,0,0,1,.26-.06A.19.19,0,0,1,408.4,374.39Z" transform="translate(-407.44 -292.17)"/>
    <path class="cls-1" d="M411.29,379.28c-.14.19-.13.09-.15.12s0,0,0,0-.06,0-.08.05-.15.11-.18.18-.05.17-.11.22a1.08,1.08,0,0,1-.16.23.08.08,0,0,1-.1,0,.06.06,0,0,1,0-.07l0-.05s.05-.13.09-.2.1-.13.15-.19a.52.52,0,0,0,.1-.23c0-.05,0-.06.06-.16l.09-.07s.06-.09-.05.06a.19.19,0,0,1,.23-.12A.19.19,0,0,1,411.29,379.28Z" transform="translate(-407.44 -292.17)"/>
    <path class="cls-1" d="M415.45,379.53c0-.19,0-.07,0-.07a1,1,0,0,1,0,.12c0,.12,0,.11,0,.18a.92.92,0,0,0,0,.29,1.46,1.46,0,0,1,0,.29c0,.1,0,.23,0,.26v0a.08.08,0,0,1-.08.07.06.06,0,0,1-.06-.06,1.12,1.12,0,0,1,0-.31,1.36,1.36,0,0,1,0-.29,1,1,0,0,0,0-.3s0-.13,0-.11h0c0-.05-.06,0-.07-.2a.19.19,0,0,1,.36.1Z" transform="translate(-407.44 -292.17)"/>
    <path class="cls-1" d="M412.57,377.81c-.1.16-.12.1-.14.12h0s0,0,0,0l-.13.14-.26.27c-.07.1-.15.19-.22.3a1.14,1.14,0,0,0-.06.15c0,.05,0,0-.1.23a.2.2,0,0,1-.28,0,.19.19,0,0,1,0-.28c-.06.09,0,0,.07-.09s.12-.08.18-.12a2,2,0,0,0,.27-.24,1.57,1.57,0,0,0,.18-.31l.07-.16s.27-.28.08-.1a.17.17,0,0,1,.23-.11A.18.18,0,0,1,412.57,377.81Z" transform="translate(-407.44 -292.17)"/>
    <path class="cls-1" d="M415.64,371.25a.3.3,0,0,1-.24.06.06.06,0,0,1,0,0h0s.08,0,0,0l-.19.06-.4.14-.79.31-.74.4c-.13.06-.25.14-.39.22s-.18.08-.15.1l-.05.06s0,.07-.23.13a.35.35,0,0,1-.37-.33.34.34,0,0,1,.32-.37c-.16,0-.06,0,0,0l.14,0a.78.78,0,0,1,.24,0,1.89,1.89,0,0,0,.4-.08c.27-.09.52-.2.78-.31s.49-.27.72-.43l.36-.23.18-.12a.4.4,0,0,1,.22-.07h.08s0,0,0,0-.05,0-.19.05a.32.32,0,0,1,.45.05A.33.33,0,0,1,415.64,371.25Z" transform="translate(-407.44 -292.17)"/>
    <path class="cls-1" d="M439.45,427.47c-.22.09-.18,0-.21,0h0s.06,0,0,0h-.17l-.34,0c-.1,0-.21.06-.31.11l-.11.09,0,0s0,.05-.18.08a.25.25,0,0,1-.25-.24.26.26,0,0,1,.25-.26c-.12,0-.05,0,0,0l.11,0c.11,0,.14,0,.2,0a1.22,1.22,0,0,0,.33,0,1,1,0,0,0,.28-.14l.14-.09s.1-.06.16-.06h.06s.06-.05-.13,0a.23.23,0,0,1,.26.38Z" transform="translate(-407.44 -292.17)"/>
    <path class="cls-1" d="M437.65,427.91c-.19.13-.15,0-.18.07h0s-.06,0-.08,0a.59.59,0,0,0-.21.1c-.05.05-.08.13-.15.16s-.08.09-.21.15a.06.06,0,0,1-.08,0,0,0,0,0,1,0-.05l0-.06a.88.88,0,0,1,.14-.14c0-.07.12-.08.19-.13a.47.47,0,0,0,.14-.17s0-.05.1-.12l.09,0s.09-.06-.07.05a.19.19,0,0,1,.3.22Z" transform="translate(-407.44 -292.17)"/>
    <path class="cls-1" d="M443.18,426.36c-.16.09-.22.05-.24.05l-.05,0,0,0s.09,0,0,0a.58.58,0,0,0-.19,0l-.37.1-.74.23-.71.32c-.12,0-.23.12-.36.18s-.17.08-.15.09l0,.06s0,.07-.24.11a.35.35,0,0,1,0-.7c-.17,0-.07.05-.06,0l.14,0a1.65,1.65,0,0,1,.23,0,1.18,1.18,0,0,0,.37-.05c.25-.06.49-.14.73-.22s.46-.23.68-.36l.34-.19a.62.62,0,0,0,.17-.11.51.51,0,0,1,.22-.05H443s0,0-.19,0a.32.32,0,1,1,.37.53Z" transform="translate(-407.44 -292.17)"/>
    <path class="cls-1" d="M439.46,428.39c-.22.09-.18,0-.21,0h0s.06,0,0,0l-.18,0a2,2,0,0,0-.35.05,2.13,2.13,0,0,0-.33.11s-.13.09-.12.1l0,0s0,.05-.18.09a.25.25,0,0,1-.25-.25.24.24,0,0,1,.24-.25c-.11,0,0,0,0,0l.11,0c.12,0,.14,0,.21,0a1.88,1.88,0,0,0,.34,0,1.05,1.05,0,0,0,.3-.15l.14-.09s.11-.06.16-.06h.07s.06-.05-.13,0a.24.24,0,0,1,.32.06A.23.23,0,0,1,439.46,428.39Z" transform="translate(-407.44 -292.17)"/>
    <path class="cls-1" d="M437.54,428.86c-.21.11-.16,0-.19.05s0,0,0,0-.07,0-.09,0a.78.78,0,0,0-.23.07c-.06,0-.11.12-.18.14a1.42,1.42,0,0,1-.24.11.07.07,0,0,1-.08,0,.06.06,0,0,1,0-.07l0,0,.16-.12c.05-.06.14-.07.21-.1a.55.55,0,0,0,.19-.15s0-.06.11-.11l.11,0s.09-.05-.08,0a.18.18,0,0,1,.26.26Z" transform="translate(-407.44 -292.17)"/>
    <path class="cls-1" d="M443.31,427.15a.28.28,0,0,1-.24.05l-.05,0,0,0s.09,0,0,0a.58.58,0,0,0-.19,0l-.38.12c-.26.08-.51.18-.76.27l-.73.36-.37.2c-.06,0-.19.08-.16.09l0,.06s0,.07-.24.11a.35.35,0,0,1-.35-.35.35.35,0,0,1,.35-.35c-.17,0-.07.05-.05,0l.14,0a1.65,1.65,0,0,1,.23,0,1.76,1.76,0,0,0,.38-.06,7.51,7.51,0,0,0,.75-.27c.23-.12.47-.25.7-.39l.35-.21.18-.12a.49.49,0,0,1,.22-.06s.06,0,.08,0,0,0,0,0-.05,0-.2,0a.33.33,0,0,1,.45.08A.31.31,0,0,1,443.31,427.15Z" transform="translate(-407.44 -292.17)"/>
    <path class="cls-1" d="M439.69,429.43c-.22.1-.18,0-.21,0h0s.05,0,0,0l-.19,0-.36.06c-.11,0-.23.07-.34.12s-.13.09-.12.1l-.05.05s0,.06-.18.09a.25.25,0,0,1-.26-.24.27.27,0,0,1,.24-.26c-.11,0,0,0,0,0l.12,0c.11,0,.14,0,.22,0a2.07,2.07,0,0,0,.35,0,1.3,1.3,0,0,0,.31-.16l.15-.1s.1-.06.16-.06h.07s.06-.05-.13,0a.24.24,0,0,1,.32.05A.22.22,0,0,1,439.69,429.43Z" transform="translate(-407.44 -292.17)"/>
    <path class="cls-1" d="M437.63,429.85c-.22.06-.16,0-.19,0s0,0,0,0-.07,0-.1,0a.93.93,0,0,0-.24,0c-.08,0-.14.1-.22.1a.94.94,0,0,1-.26.07.06.06,0,0,1-.08-.06.05.05,0,0,1,0-.06l0,0a1.16,1.16,0,0,1,.19-.09.65.65,0,0,1,.24-.06.76.76,0,0,0,.22-.11c.05,0,0-.06.14-.09h.11s.11,0-.08,0a.19.19,0,0,1,.26,0A.19.19,0,0,1,437.63,429.85Z" transform="translate(-407.44 -292.17)"/>
    <path class="cls-1" d="M443.59,427.87a.37.37,0,0,1-.24.06l-.05,0,0,0s.08,0,0,0l-.18.06-.38.16c-.26.11-.51.24-.76.37l-1.55,1a.34.34,0,0,1-.36-.34.35.35,0,0,1,.34-.36c-.17,0-.07.05-.05,0l.14,0c.16,0,.16,0,.24,0a1.31,1.31,0,0,0,.38-.09,7.36,7.36,0,0,0,.75-.36q.35-.22.69-.48l.34-.25.2-.13a.38.38,0,0,1,.22-.07h.08s0,0,0,0a.28.28,0,0,0-.19.05.33.33,0,0,1,.45.07A.31.31,0,0,1,443.59,427.87Z" transform="translate(-407.44 -292.17)"/>
    <path class="cls-1" d="M440.16,430.29c-.21.11-.18,0-.22,0l0,0s.05,0,0,0l-.18,0-.36.09a2.49,2.49,0,0,0-.33.16l-.11.1,0,.05s0,.06-.18.11a.24.24,0,0,1-.27-.22.23.23,0,0,1,.22-.27c-.11,0,0,0,0,0l.11,0c.11,0,.15,0,.22,0a2,2,0,0,0,.35-.06,1.14,1.14,0,0,0,.3-.18l.14-.11s.1-.07.15-.07H440s.06-.06-.13,0a.24.24,0,0,1,.33,0A.23.23,0,0,1,440.16,430.29Z" transform="translate(-407.44 -292.17)"/>
    <path class="cls-1" d="M438.14,430.91c-.23,0-.16,0-.2,0h0s-.07,0-.09,0a.68.68,0,0,0-.25,0c-.07,0-.14.09-.22.09a1.31,1.31,0,0,1-.27,0A.07.07,0,0,1,437,431a.06.06,0,0,1,0-.06l.05,0,.19-.08a.55.55,0,0,1,.25,0,.65.65,0,0,0,.22-.11c.05,0,0-.05.14-.07H438s.11,0-.07,0a.18.18,0,0,1,.25.07A.19.19,0,0,1,438.14,430.91Z" transform="translate(-407.44 -292.17)"/>
    <path class="cls-1" d="M443.9,428.47a.29.29,0,0,1-.24.07h-.05l0,0s.09-.05,0,0a.67.67,0,0,0-.18.07l-.36.18c-.25.13-.48.28-.72.42l-1.46,1.06a.35.35,0,0,1-.39-.31.35.35,0,0,1,.31-.38c-.16.05-.06.05,0,0l.13,0a1.12,1.12,0,0,1,.24,0,1.33,1.33,0,0,0,.37-.12,5.57,5.57,0,0,0,.71-.4c.22-.17.44-.34.64-.52l.33-.27.18-.15a.38.38,0,0,1,.22-.08h.08s0,0,0,0-.05,0-.18.06a.32.32,0,0,1,.45,0A.33.33,0,0,1,443.9,428.47Z" transform="translate(-407.44 -292.17)"/>
    <path class="cls-1" d="M416.58,369.59a3.48,3.48,0,0,0,1.63-.87c.49-.41,1-.91,1.56-1.38l3.12-2.82c1-1,2-1.92,3.08-2.86.51-.49,1-1,1.5-1.51l.37-.39a2,2,0,0,0,.29-.34,2.37,2.37,0,0,0,.15-.34,1.8,1.8,0,0,1,.14-.28,1.29,1.29,0,0,1,.46-.5,1,1,0,0,1,.95,1.77c.15-.12.12-.16.09-.14a.94.94,0,0,0-.17.15,4.88,4.88,0,0,1-.51.48,3.06,3.06,0,0,1-.52.32c-.15.09-.3.17-.44.27a18.61,18.61,0,0,0-1.71,1.19c-1.07.89-2.11,1.82-3.15,2.75s-2,2-2.93,3a21.17,21.17,0,0,1-3.13,3.19l-.07.06a1,1,0,0,1-1.16-1.55A1,1,0,0,1,416.58,369.59Z" transform="translate(-407.44 -292.17)"/>
    <path class="cls-1" d="M453.47,386a1.59,1.59,0,0,1,.06,1.15c-.07.24-.15.44-.22.64l-.42,1.13c-.29.72-.52,1.44-.76,2.15s-.48,1.41-.75,2.13-.58,1.42-.83,2.14-.45,1.46-.71,2.18l-.79,2.16c-.23.73-.41,1.47-.58,2.23l-.24,1.16a10.23,10.23,0,0,1-.32,1.31l-.08.26a1.23,1.23,0,0,1-2.33-.79,1.2,1.2,0,0,1,.52-.65,3,3,0,0,0,.65-.76,10.53,10.53,0,0,0,.58-1,17.53,17.53,0,0,0,.92-2.08c.24-.72.42-1.47.64-2.2l.68-2.18a35.78,35.78,0,0,1,1.26-4.43c.28-.72.61-1.42.86-2.13a7.19,7.19,0,0,0,.31-1,1.56,1.56,0,0,0,0-.47c0-.11-.12-.26-.05,0a.92.92,0,1,1,1.57-1Z" transform="translate(-407.44 -292.17)"/>
    <path class="cls-1" d="M447,403.83a4.89,4.89,0,0,1,.3-.8l.24-.62c.13-.4.24-.8.34-1.2.2-.81.35-1.62.57-2.41.41-1.6,1.19-3.08,1.61-4.66s1.21-3.05,1.58-4.67l.16-.61a4.2,4.2,0,0,1,.17-.65,7.92,7.92,0,0,1,.69-1.19,6.71,6.71,0,0,1,.87-1.09,3.89,3.89,0,0,1,.64-.52,2.05,2.05,0,0,1,1.15-.31,1,1,0,0,1-.23,2c.12,0,.07,0,0,0a1.61,1.61,0,0,0-.35.2,5.73,5.73,0,0,0-.78.72,6.65,6.65,0,0,0-.64.87c-.16.27-.4.67-.57,1a29.52,29.52,0,0,0-1.62,4.6c-.57,1.53-.75,3.18-1.24,4.72-.23.78-.51,1.55-.71,2.33a7.88,7.88,0,0,0-.21,1.18,2.24,2.24,0,0,0,0,.58.6.6,0,0,0,.18.43,1.4,1.4,0,1,1-2.3.57Z" transform="translate(-407.44 -292.17)"/>
    <path class="cls-1" d="M448.68,406a1.12,1.12,0,0,1-.07.83,1.05,1.05,0,0,1-.14.22,1.26,1.26,0,0,1-.16.19.15.15,0,0,1-.07.06s0-.06,0,0c0,.39-.06.77-.08,1.14l-.13,2.26c-.07,1.5-.19,3-.23,4.49s0,3,0,4.5V422a5.11,5.11,0,0,0,.06,1,2.23,2.23,0,0,0,.22.79,1,1,0,0,1-.21,1.39,1,1,0,0,1-1.39-.2,1.37,1.37,0,0,1-.16-.32l0-.17a4.07,4.07,0,0,1-.14-1.41,5.55,5.55,0,0,1,.17-1.25,19.29,19.29,0,0,0,.39-2.17c.17-1.47.28-3,.35-4.45s-.08-3-.18-4.46c-.05-.74-.13-1.49-.21-2.22,0-.37-.09-.74-.16-1.1a1.91,1.91,0,0,1,0-.53,2.35,2.35,0,0,1,.12-.46c0-.13.09-.24.1-.31s0-.06,0,0-.12.09,0,.56a1.06,1.06,0,0,1,2-.64Z" transform="translate(-407.44 -292.17)"/>
    <path class="cls-1" d="M444.83,422.47a3.66,3.66,0,0,0,.51-1.71c.06-.62.09-1.31.13-2l.24-4c.05-1.33.13-2.66.22-4,0-.67,0-1.34,0-2V408a.68.68,0,0,0,0-.15,3.75,3.75,0,0,0-.12-.36,1.47,1.47,0,0,1-.09-.88.85.85,0,0,1,1.62.5c0-.26-.05-.05,0,.1s0,.4,0,.63a2,2,0,0,1-.06.35l-.06.24a3.62,3.62,0,0,0-.13.47c-.15.65-.28,1.3-.37,2-.14,1.32-.24,2.64-.32,4s-.06,2.65,0,4a18.31,18.31,0,0,1-.06,4.23v.05a.81.81,0,1,1-1.59-.29A1,1,0,0,1,444.83,422.47Z" transform="translate(-407.44 -292.17)"/>
    <g>
      <path class="cls-1" d="M448.08,405.37c-.15.66-.66,1.34-1.16,1.23a1.52,1.52,0,0,1-.79-1.67c.15-.66.57-1.13,1.31-1S448.23,404.7,448.08,405.37Z" transform="translate(-407.44 -292.17)"/>
      <path class="cls-2" d="M448.24,405.4a2.5,2.5,0,0,1-.43.9,1,1,0,0,1-.95.44,1.25,1.25,0,0,1-.73-.73,2.12,2.12,0,0,1-.21-1,1.34,1.34,0,0,1,.46-.92,1.25,1.25,0,0,1,1-.27,1,1,0,0,1,.86.57A1.66,1.66,0,0,1,448.24,405.4Zm-.32-.07a1.8,1.8,0,0,0,0-.83.71.71,0,0,0-.61-.43.69.69,0,0,0-.72.24,2.25,2.25,0,0,0-.31.75,1.31,1.31,0,0,0,.64,1.38c.21.07.46-.11.63-.33A1.73,1.73,0,0,0,447.92,405.33Z" transform="translate(-407.44 -292.17)"/>
    </g>
    <path class="cls-1" d="M451,343.12h0a1.2,1.2,0,0,1,1.15,0l3.27,1.82a1.2,1.2,0,0,0,.72.14l1.5-.18c1.43-.31,2.07.83,1.13,1.85A11.09,11.09,0,0,0,457,350a1.19,1.19,0,0,1-2.17.05l-.23-.48a1.25,1.25,0,0,0-.16-.24l-2.36-2.88L450.67,345A1.19,1.19,0,0,1,451,343.12Z" transform="translate(-407.44 -292.17)"/>
    <path class="cls-1" d="M448.14,426.41h0a.63.63,0,0,1-.42.39h0a8.85,8.85,0,0,1-1.08.41,4,4,0,0,0-1.26.76c-.28.19-1.08.42-1.32-.24a7.28,7.28,0,0,1-.46-1.79c-.05-.51.29-.95.77-.76l2.23.37,1,.08A.6.6,0,0,1,448.14,426.41Z" transform="translate(-407.44 -292.17)"/>
    <path class="cls-1" d="M491.88,343.12h0a1.2,1.2,0,0,0-1.15,0l-3.27,1.82a1.2,1.2,0,0,1-.72.14l-1.5-.18c-1.42-.31-2.07.83-1.12,1.85a11.57,11.57,0,0,1,1.77,3.28,1.19,1.19,0,0,0,2.16.05l.24-.48a1.2,1.2,0,0,1,.15-.24l2.37-2.88,1.38-1.51A1.19,1.19,0,0,0,491.88,343.12Z" transform="translate(-407.44 -292.17)"/>
    <path class="cls-1" d="M497.67,347a1.78,1.78,0,0,0,.48.73,8.67,8.67,0,0,0,.79.69c.55.45,1.15.84,1.73,1.25s1.16.82,1.72,1.27,1.09.92,1.67,1.35l1.77,1.21c.59.41,1.16.84,1.76,1.23a14.83,14.83,0,0,0,1.89,1c.32.14.66.28,1,.39.16.06.33.1.5.15l.44.07a1,1,0,1,1-.69,1.88l-.54-.38c-.15-.12-.29-.24-.45-.35-.31-.22-.58-.47-.88-.69-.58-.44-1.17-.87-1.77-1.27s-1.24-.73-1.84-1.12-1.2-.81-1.8-1.21-1.24-.74-1.86-1.11-1.2-.81-1.77-1.24-1.12-.92-1.7-1.36c-.29-.22-.58-.46-.88-.66s-.63-.41-1.06-.77l-.16-.13a1,1,0,0,1,1.31-1.58A1.06,1.06,0,0,1,497.67,347Z" transform="translate(-407.44 -292.17)"/>
    <path class="cls-1" d="M509.47,358.43l0-.16a1.37,1.37,0,0,0-.15-.21,3.59,3.59,0,0,0-.37-.42,10.58,10.58,0,0,0-.89-.74c-.62-.48-1.27-.91-1.93-1.35s-1.29-.9-1.9-1.39-1.23-1-1.88-1.44-1.32-.86-2-1.32-1.29-.92-2-1.33-1.38-.75-2.09-1.09a5.34,5.34,0,0,0-1-.36,2.83,2.83,0,0,0-1,0,1,1,0,1,1-.33-2,.93.93,0,0,1,.44,0l.05,0a6.75,6.75,0,0,1,1.36.49,7,7,0,0,1,1.1.74c.64.47,1.28.95,1.94,1.38s1.36.82,2,1.23,1.32.88,2,1.31,1.36.81,2.05,1.22a23.44,23.44,0,0,1,2,1.33c.64.48,1.25,1,1.9,1.46.32.25.63.49,1,.72l.53.36.29.19.34.28,0,0a1,1,0,0,1,.14,1.36,1,1,0,0,1-1.36.14A1,1,0,0,1,509.47,358.43Z" transform="translate(-407.44 -292.17)"/>
    <path class="cls-1" d="M513.4,359.9c-.22-.32-.32-.29-.35-.31s0,0,0,0l.27.14a1.84,1.84,0,0,1,.74.56c.21.29.42.57.65.84.46.55.93,1.1,1.43,1.62,1,1.06,2,2.11,3.06,3.09s2.2,1.88,3.35,2.77c.58.43,1.19.83,1.8,1.21l.48.28a3.78,3.78,0,0,1,.55.48l.41.44a.87.87,0,0,0,.16.14s.09,0-.08-.11a1,1,0,0,1-.95,1.76,1.3,1.3,0,0,1-.47-.48c-.07-.12-.12-.22-.16-.3s-.14-.33-.21-.45a1.36,1.36,0,0,0-.2-.32l-.36-.4c-.53-.52-1-1.06-1.56-1.56l-3.19-3-3.33-2.84-1.66-1.45-.84-.74a.55.55,0,0,1-.17,0l-.25,0-.24-.06a1,1,0,0,1-.55-.48.93.93,0,0,1,.4-1.24A.94.94,0,0,1,513.4,359.9Z" transform="translate(-407.44 -292.17)"/>
    <path class="cls-1" d="M527,372.83c-.06-.15-.11-.14-.12-.15h0l.06.05a.75.75,0,0,1,.09.09l0,.09a.91.91,0,0,0,.09.17l.2.34c.14.23.29.45.43.67s.35.41.53.6a3.83,3.83,0,0,0,.29.28.81.81,0,0,1,.19.17l.09.1s.09.07,0-.06a.35.35,0,0,1,.06.49.36.36,0,0,1-.5.06c-.15-.18-.09-.2-.11-.24v-.08s0-.08,0-.15a2.53,2.53,0,0,0-.2-.36c-.14-.23-.3-.45-.46-.67a7.76,7.76,0,0,0-.55-.61l-.28-.3a1.07,1.07,0,0,0-.16-.14c-.05-.05,0,.05,0,0h0l-.05,0a.3.3,0,0,1-.16-.19.32.32,0,1,1,.62-.18Z" transform="translate(-407.44 -292.17)"/>
    <path class="cls-1" d="M525.7,373.53c-.05-.28-.09-.19-.08-.21s0,0,0,.06a.51.51,0,0,1,.08.22.49.49,0,0,0,0,.17l0,.35c0,.23.08.47.13.7a5.24,5.24,0,0,0,.27.65,1.49,1.49,0,0,0,.18.3c.07,0,.2.54.16.24a.38.38,0,0,1-.13.52.38.38,0,0,1-.51-.13c-.09-.22,0-.22,0-.27s0-.05,0-.06l0,0a.31.31,0,0,0,0-.09,2.21,2.21,0,0,0,0-.37c-.05-.24-.11-.46-.17-.69s-.17-.45-.27-.67l-.14-.34a.89.89,0,0,0-.08-.17s0,.06,0,.06h0s-.08,0-.13-.28a.35.35,0,0,1,.7,0Z" transform="translate(-407.44 -292.17)"/>
    <path class="cls-1" d="M526.91,377.11c0-.15-.09-.17-.1-.18h0l0,0a.35.35,0,0,1,.13.14c0,.08,0,.08,0,.13l.06.21a4.08,4.08,0,0,0,.17.42,3.52,3.52,0,0,0,.27.37.61.61,0,0,0,.17.15c0-.05.24.44.09.12a.24.24,0,0,1,0,.35.25.25,0,0,1-.35,0c-.14-.18-.07-.19-.09-.22l0,0h0s0,0,0-.05a1.45,1.45,0,0,0-.09-.22c-.06-.15-.14-.28-.2-.42l-.27-.38-.13-.2s-.06-.1-.06-.08,0,.06,0,.06h0l-.05,0a.22.22,0,0,1-.11-.21.23.23,0,0,1,.24-.22A.25.25,0,0,1,526.91,377.11Z" transform="translate(-407.44 -292.17)"/>
    <path class="cls-1" d="M527.5,371.7c-.1-.13-.15-.11-.16-.12h0l.08,0a.59.59,0,0,1,.18.13,1.77,1.77,0,0,0,.12.17l.28.3a5.32,5.32,0,0,0,1.24,1.08,2.42,2.42,0,0,0,.36.18.89.89,0,0,1,.23.11l.12.08s.1,0,0-.06a.35.35,0,0,1,.18.46.35.35,0,0,1-.45.19c-.2-.13-.15-.16-.18-.2l0-.07s-.06-.09-.11-.14-.19-.21-.3-.31l-.61-.56-.67-.49-.34-.24a1.08,1.08,0,0,0-.18-.11c-.06,0,0,0,0,0h-.08s-.09,0-.21-.14a.32.32,0,0,1,.1-.44A.33.33,0,0,1,527.5,371.7Z" transform="translate(-407.44 -292.17)"/>
    <path class="cls-1" d="M530.75,374.36c-.17-.11-.12,0-.12-.05l.07,0c.06,0,.16.07.15.09l.13.13a1.29,1.29,0,0,0,.3.22,1.36,1.36,0,0,0,.36.1c.07,0,.11,0,.22,0l.12.06s.09,0,0,0a.25.25,0,0,1,.19.3.26.26,0,0,1-.3.19c-.16-.08-.13-.11-.17-.13a.16.16,0,0,0,0-.06l-.12-.12a1.55,1.55,0,0,0-.32-.2l-.37-.14-.18-.07c-.06,0,0,0,0,0h0s0,.06-.21-.07a.22.22,0,0,1,0-.32A.24.24,0,0,1,530.75,374.36Z" transform="translate(-407.44 -292.17)"/>
    <path class="cls-1" d="M529.62,376.21c-.11-.17-.09-.08-.09-.09l.06,0s.12.13.1.14,0,.11.07.17a1.49,1.49,0,0,0,.18.3,1.63,1.63,0,0,0,.29.23c.06,0,.11,0,.19.11l.08.09s.07.06,0,0a.25.25,0,1,1-.29.41c-.13-.13-.09-.14-.11-.18a.15.15,0,0,0,0-.07.61.61,0,0,0-.05-.15,3.3,3.3,0,0,0-.22-.3,2.26,2.26,0,0,0-.28-.25l-.14-.13s0,0,0,0h0s0,.06-.17-.14a.23.23,0,0,1,.14-.29A.21.21,0,0,1,529.62,376.21Z" transform="translate(-407.44 -292.17)"/>
    <path class="cls-1" d="M531.73,372.36c-.19-.08-.12,0-.13,0h.07c.06,0,.17,0,.16.06l.14.11a1.34,1.34,0,0,0,.31.17,1.29,1.29,0,0,0,.35,0c.07,0,.1,0,.22,0l.11,0s.09,0,0,0a.25.25,0,1,1,0,.5c-.17,0-.14-.08-.18-.1l0-.05s-.08-.07-.12-.1a1.36,1.36,0,0,0-.33-.14,2.33,2.33,0,0,0-.36-.08l-.19,0s0,0,0,0l0,0s0,.06-.21,0a.23.23,0,0,1,.29-.36Z" transform="translate(-407.44 -292.17)"/>
    <path class="cls-1" d="M533.45,373.05c-.23-.13.13,0,.1.07l.11.14a1,1,0,0,0,.25.25,1.82,1.82,0,0,0,.31.16c.07,0,.11,0,.2.07s.17.13.09.06a.2.2,0,0,1-.15.37c-.18-.14-.11-.16-.15-.19l-.1-.13c-.09-.09-.19-.15-.28-.23l-.31-.19-.16-.1c-.05,0,0,0,0,0h0s0,.05-.17-.08a.19.19,0,0,1,.06-.26A.18.18,0,0,1,533.45,373.05Z" transform="translate(-407.44 -292.17)"/>
    <path class="cls-1" d="M532.54,375.31c-.23-.13.13,0,.11.07l.11.15a1.07,1.07,0,0,0,.26.26,1.45,1.45,0,0,0,.32.18c.07,0,.12,0,.21.08s.18.14.1.07a.2.2,0,1,1-.16.36c-.18-.14-.11-.16-.16-.2l-.1-.13a2.26,2.26,0,0,0-.29-.25l-.32-.21-.17-.1c-.05,0,0,0,0,0h0s0,.05-.16-.09a.17.17,0,0,1,.06-.25A.18.18,0,0,1,532.54,375.31Z" transform="translate(-407.44 -292.17)"/>
    <path class="cls-1" d="M534.18,376.56c-.15-.12-.07,0-.06,0l.1.05c.09.07.06.09.1.13a.65.65,0,0,0,.16.21c.06.06.16.08.2.16a1.12,1.12,0,0,1,.14.18l0,0a.07.07,0,0,1,0,.1.08.08,0,0,1-.08,0c-.12-.07-.14-.13-.21-.18s-.11-.14-.17-.2a.69.69,0,0,0-.22-.14s-.11-.06-.09,0,0,0,0,0,0,.06-.18-.09a.18.18,0,0,1,.31-.2Z" transform="translate(-407.44 -292.17)"/>
    <path class="cls-1" d="M535,374.19c-.15-.12-.08,0-.07-.05l.1.05c.09.07.06.09.09.13a1,1,0,0,0,.16.2c.06.05.15.07.19.14a1.17,1.17,0,0,1,.14.17l0,0a.07.07,0,0,1,0,.1h-.07a1.5,1.5,0,0,1-.21-.17c-.07,0-.1-.13-.16-.18a.62.62,0,0,0-.21-.13s-.11-.05-.09,0,0,0,0,0,0,.07-.18-.08a.19.19,0,0,1,0-.26A.19.19,0,0,1,535,374.19Z" transform="translate(-407.44 -292.17)"/>
    <path class="cls-1" d="M532.17,379.16c-.11-.15-.06-.05,0-.06l.09.07c.06.1,0,.11.06.16a.65.65,0,0,0,.09.23c0,.06.14.11.16.19s.08.18.09.2l0,.05a.06.06,0,0,1,0,.09.06.06,0,0,1-.07,0,1.08,1.08,0,0,1-.16-.23c-.07-.05-.07-.15-.11-.22a.77.77,0,0,0-.18-.18s-.09-.08-.08-.05,0,0,0,0,0,.07-.15-.12a.19.19,0,0,1,.12-.24A.19.19,0,0,1,532.17,379.16Z" transform="translate(-407.44 -292.17)"/>
    <path class="cls-1" d="M528,379.43c0,.23,0,.15-.06.2h0s0,.08,0,.11a1,1,0,0,0,0,.3,1.36,1.36,0,0,1,0,.29,1.12,1.12,0,0,1,0,.31s0,.07-.08.06a.07.07,0,0,1-.06-.07v0a2.08,2.08,0,0,1,0-.26,1.46,1.46,0,0,1,0-.29.71.71,0,0,0-.05-.29c0-.07,0-.06,0-.18a.35.35,0,0,1,0-.12s0-.12,0,.07a.19.19,0,0,1,.13-.23A.17.17,0,0,1,528,379.43Z" transform="translate(-407.44 -292.17)"/>
    <path class="cls-1" d="M530.89,377.69c-.19-.18.12.06.08.1l.07.16a1.57,1.57,0,0,0,.18.31,1.55,1.55,0,0,0,.27.24c.06,0,.11,0,.17.12s.14.18.08.09a.19.19,0,0,1,0,.28.2.2,0,0,1-.28,0c-.14-.19-.07-.18-.1-.23a.61.61,0,0,0-.07-.15,3.21,3.21,0,0,0-.21-.3l-.26-.27-.13-.14s0,0,0,0h0s0,0-.14-.12a.19.19,0,0,1,.35-.12Z" transform="translate(-407.44 -292.17)"/>
    <path class="cls-1" d="M527.87,370.74c-.14-.09-.18-.05-.19-.05s0,0,0,0h.08a.43.43,0,0,1,.22.07,1.88,1.88,0,0,0,.18.12l.36.23c.23.16.48.29.72.43s.51.22.78.31a1.77,1.77,0,0,0,.4.08.78.78,0,0,1,.24,0l.14,0s.12,0,0,0a.35.35,0,0,1,0,.7c-.23-.06-.19-.1-.24-.13l0-.06s-.1-.07-.15-.1-.26-.16-.39-.22l-.75-.4-.78-.31-.4-.14-.19-.06c-.07,0,0,0,0,0h0a.06.06,0,0,1,0,0,.3.3,0,0,1-.24-.06.33.33,0,0,1-.05-.46A.32.32,0,0,1,527.87,370.74Z" transform="translate(-407.44 -292.17)"/>
    <path class="cls-1" d="M525.75,371.26a21.77,21.77,0,0,1-3.14-3.19c-.93-1-1.9-2-2.92-3s-2.08-1.86-3.15-2.75a20.08,20.08,0,0,0-1.71-1.19c-.14-.1-.3-.18-.45-.27a4.12,4.12,0,0,1-.52-.32,4.69,4.69,0,0,1-.5-.48.94.94,0,0,0-.17-.15s-.06,0,.09.14a1,1,0,0,1-.4-1.36,1,1,0,0,1,1.35-.41,1.29,1.29,0,0,1,.46.5,1.8,1.8,0,0,1,.14.28,2.37,2.37,0,0,0,.15.34,2,2,0,0,0,.29.34l.37.39c.5.5,1,1,1.49,1.51,1,.94,2.08,1.89,3.08,2.86l3.13,2.82c.52.47,1.06,1,1.56,1.38a3.48,3.48,0,0,0,1.63.87,1,1,0,0,1-.26,1.91.91.91,0,0,1-.44-.18Z" transform="translate(-407.44 -292.17)"/>
    <path class="cls-1" d="M491.21,386.94c.07-.29-.07-.14,0,0a1.56,1.56,0,0,0,0,.47,7.19,7.19,0,0,0,.31,1c.25.71.57,1.41.86,2.13a35.78,35.78,0,0,1,1.26,4.43l.68,2.18c.22.73.4,1.48.64,2.2a16,16,0,0,0,.92,2.08,10.53,10.53,0,0,0,.58,1,3,3,0,0,0,.65.76,1.23,1.23,0,1,1-1.81,1.44l-.09-.26a12,12,0,0,1-.31-1.31l-.24-1.16c-.17-.76-.35-1.5-.58-2.23l-.8-2.16c-.25-.72-.45-1.46-.7-2.18s-.55-1.43-.83-2.14-.5-1.41-.75-2.13-.47-1.43-.76-2.15l-.42-1.13c-.07-.2-.15-.4-.22-.64a1.63,1.63,0,0,1,.05-1.15.93.93,0,0,1,1.27-.31A.92.92,0,0,1,491.21,386.94Z" transform="translate(-407.44 -292.17)"/>
    <path class="cls-1" d="M494,403.72a.64.64,0,0,0,.18-.43,2.24,2.24,0,0,0,0-.58,7.88,7.88,0,0,0-.21-1.18c-.21-.78-.48-1.55-.71-2.33-.49-1.54-.67-3.19-1.24-4.72a30.59,30.59,0,0,0-1.62-4.6c-.17-.35-.41-.75-.57-1a6.65,6.65,0,0,0-.64-.87,5.73,5.73,0,0,0-.78-.72,1.89,1.89,0,0,0-.35-.2c-.1,0-.14,0,0,0a1,1,0,0,1-.22-2,2,2,0,0,1,1.14.31,3.61,3.61,0,0,1,.65.52,6.71,6.71,0,0,1,.87,1.09,8.87,8.87,0,0,1,.69,1.19,4.2,4.2,0,0,1,.17.65l.16.61c.37,1.62,1.09,3.1,1.58,4.67s1.2,3.06,1.61,4.66c.22.79.37,1.6.57,2.41.1.4.21.8.34,1.2l.24.62a7.88,7.88,0,0,1,.3.8l.16.46a1.41,1.41,0,1,1-2.3-.57Z" transform="translate(-407.44 -292.17)"/>
    <path class="cls-1" d="M496.45,406.65c.09-.47,0-.51,0-.56s0,0,0,0a1.76,1.76,0,0,0,.1.31,2.35,2.35,0,0,1,.12.46,1.91,1.91,0,0,1,0,.53c-.07.36-.12.73-.16,1.1-.08.73-.16,1.48-.21,2.22-.1,1.49-.2,3-.18,4.46s.18,3,.35,4.45a19.29,19.29,0,0,0,.39,2.17,5.55,5.55,0,0,1,.17,1.25,4.33,4.33,0,0,1-.14,1.41l0,.17a1,1,0,0,1-1.92-.55,1.37,1.37,0,0,1,.16-.32,2.46,2.46,0,0,0,.22-.79,5.11,5.11,0,0,0,.06-1v-2.29c0-1.51,0-3,0-4.5s-.16-3-.23-4.49l-.13-2.26c0-.37,0-.75-.08-1.14,0-.08,0,0,0,0a.15.15,0,0,1-.07-.06,1.26,1.26,0,0,1-.16-.19,1.05,1.05,0,0,1-.14-.22,1.12,1.12,0,0,1-.07-.83,1.06,1.06,0,0,1,2,.64Z" transform="translate(-407.44 -292.17)"/>
    <path class="cls-1" d="M496.81,423a18.31,18.31,0,0,1-.06-4.23c.05-1.33,0-2.66,0-4s-.18-2.65-.32-4c-.09-.66-.23-1.31-.37-2a3.62,3.62,0,0,0-.13-.47l-.06-.24a2,2,0,0,1-.06-.35c0-.23,0-.45,0-.63s0-.36,0-.1a.85.85,0,0,1,1.62-.5,1.47,1.47,0,0,1-.09.88,2.14,2.14,0,0,0-.12.36.68.68,0,0,0,0,.15v.77c0,.68,0,1.35,0,2,.09,1.34.17,2.67.21,4l.25,4c0,.66.07,1.35.13,2a3.66,3.66,0,0,0,.51,1.71.82.82,0,0,1-.2,1.13.82.82,0,0,1-1.13-.2,1,1,0,0,1-.13-.32Z" transform="translate(-407.44 -292.17)"/>
    <g>
      <path class="cls-1" d="M495,405.37c.14.66.66,1.34,1.16,1.23a1.55,1.55,0,0,0,.79-1.67c-.15-.66-.57-1.13-1.31-1S494.88,404.7,495,405.37Z" transform="translate(-407.44 -292.17)"/>
      <path class="cls-2" d="M495.19,405.33a1.73,1.73,0,0,0,.35.78c.17.22.42.4.63.33a1.33,1.33,0,0,0,.64-1.38,2.25,2.25,0,0,0-.31-.75.69.69,0,0,0-.72-.24.71.71,0,0,0-.61.43A1.8,1.8,0,0,0,495.19,405.33Zm-.32.07a1.66,1.66,0,0,1,0-1,1,1,0,0,1,.86-.57,1.25,1.25,0,0,1,1,.27,1.29,1.29,0,0,1,.45.92,2,2,0,0,1-.2,1,1.28,1.28,0,0,1-.73.73,1,1,0,0,1-.95-.44A2.34,2.34,0,0,1,494.87,405.4Z" transform="translate(-407.44 -292.17)"/>
    </g>
    <path class="cls-1" d="M446,424.52c0,.61-.34.68-.75.68s-.93-.39-.93-.76.52-.6.93-.6S446,424,446,424.52Z" transform="translate(-407.44 -292.17)"/>
    <path class="cls-1" d="M503.92,427.09c-.19-.07-.12,0-.13,0h.06c.06,0,.17,0,.16.06l.14.09a1,1,0,0,0,.28.14,1.2,1.2,0,0,0,.33,0c.06,0,.09-.05.2,0l.11,0s.09,0,0,0a.26.26,0,0,1,.25.26.25.25,0,0,1-.25.24c-.18,0-.15-.07-.18-.08l0,0-.11-.09a3,3,0,0,0-.32-.11l-.33,0h-.17c-.06,0,0,0,0,0h0s0,.07-.21,0a.23.23,0,1,1,.26-.38Z" transform="translate(-407.44 -292.17)"/>
    <path class="cls-1" d="M505.76,427.69c-.16-.11-.08,0-.08-.05l.1,0c.09.07.06.09.1.12a.47.47,0,0,0,.14.17c.07,0,.15.06.19.13a.88.88,0,0,1,.14.14l0,.05a.06.06,0,0,1,0,.09h-.06c-.13-.06-.14-.11-.21-.15s-.1-.11-.15-.16a.68.68,0,0,0-.21-.1s-.11,0-.08,0h0s0,.06-.18-.07a.19.19,0,1,1,.3-.22Z" transform="translate(-407.44 -292.17)"/>
    <path class="cls-1" d="M500.3,425.83c-.15-.08-.18,0-.19,0s0,0,0,0h.08a.42.42,0,0,1,.21.05.87.87,0,0,0,.18.11l.34.19c.22.13.45.24.68.36s.48.16.73.22a1.18,1.18,0,0,0,.37.05,1.65,1.65,0,0,1,.23,0l.13,0s.12,0-.05,0a.35.35,0,0,1,0,.7c-.24,0-.2-.09-.24-.11l0-.06s-.09-.06-.14-.09-.24-.13-.36-.18l-.71-.32-.74-.23-.37-.1a.65.65,0,0,0-.19,0c-.06,0,0,0,0,0l0,0-.05,0a.28.28,0,0,1-.24-.05.32.32,0,0,1-.08-.45A.33.33,0,0,1,500.3,425.83Z" transform="translate(-407.44 -292.17)"/>
    <path class="cls-1" d="M503.91,428c-.19-.07-.13,0-.13,0h.06c.06,0,.17,0,.17.06l.14.09a1.05,1.05,0,0,0,.3.15,1.88,1.88,0,0,0,.34,0c.07,0,.09-.06.21,0l.11,0s.09,0,0,0a.25.25,0,0,1,0,.5c-.17,0-.15-.07-.18-.09l0,0s-.08-.07-.12-.1a2.13,2.13,0,0,0-.33-.11,2,2,0,0,0-.35-.05l-.18,0c-.06,0,0,0,0,0h0s0,.07-.22,0a.23.23,0,0,1,.27-.38Z" transform="translate(-407.44 -292.17)"/>
    <path class="cls-1" d="M505.83,428.6c-.17-.08-.08,0-.08,0l.11,0c.1.05.07.08.11.11a.63.63,0,0,0,.18.15.55.55,0,0,1,.22.1l.16.12,0,0a.07.07,0,0,1,0,.1.07.07,0,0,1-.06,0,1.12,1.12,0,0,1-.24-.11c-.08,0-.12-.1-.18-.14a.78.78,0,0,0-.23-.07s-.12,0-.09,0,0,0,0,0,0,.06-.19-.05a.18.18,0,0,1,.26-.26Z" transform="translate(-407.44 -292.17)"/>
    <path class="cls-1" d="M500.16,426.62c-.14-.08-.18,0-.19,0s0,0,0,0,0,0,.08,0a.49.49,0,0,1,.22.06l.18.12.35.21c.23.14.47.27.7.39a7.51,7.51,0,0,0,.75.27,1.67,1.67,0,0,0,.38.06,1.65,1.65,0,0,1,.23,0l.14,0s.12,0-.05,0a.35.35,0,0,1,.35.35.35.35,0,0,1-.35.35c-.24,0-.2-.09-.24-.11l0-.06s-.1-.06-.16-.09l-.37-.2-.73-.36c-.25-.09-.5-.19-.76-.27l-.38-.12a.58.58,0,0,0-.19,0c-.06,0,0,0,0,0l0,0,0,0a.28.28,0,0,1-.24-.05.31.31,0,0,1-.08-.45A.32.32,0,0,1,500.16,426.62Z" transform="translate(-407.44 -292.17)"/>
    <path class="cls-1" d="M503.69,429.06c-.19-.07-.12,0-.13,0h.07c.06,0,.17,0,.16.06l.15.1a1.3,1.3,0,0,0,.31.16,2.07,2.07,0,0,0,.35,0c.07,0,.11-.05.22,0l.12,0s.09,0,0,0a.27.27,0,0,1,.24.26.25.25,0,0,1-.26.24c-.18,0-.15-.07-.19-.09l0-.05s-.08-.06-.12-.1-.23-.08-.34-.12a2.2,2.2,0,0,0-.37-.06l-.18,0c-.06,0,0,0,0,0h0s0,.07-.21,0a.22.22,0,0,1-.05-.32A.23.23,0,0,1,503.69,429.06Z" transform="translate(-407.44 -292.17)"/>
    <path class="cls-1" d="M505.68,429.54c-.19-.05-.08,0-.08,0h.11c.11,0,.09.06.14.09a.76.76,0,0,0,.22.11c.08,0,.17,0,.23.06a1,1,0,0,1,.2.09l0,0a.06.06,0,0,1,0,.09s0,0-.07,0a.94.94,0,0,1-.26-.07c-.08,0-.14-.07-.22-.1a.93.93,0,0,0-.24,0s-.13,0-.1,0,0,0,0,0,0,.06-.19,0a.19.19,0,0,1-.06-.26A.19.19,0,0,1,505.68,429.54Z" transform="translate(-407.44 -292.17)"/>
    <path class="cls-1" d="M499.9,427.35a.28.28,0,0,0-.19-.05s0,0,0,0h.08a.38.38,0,0,1,.22.07l.19.13.35.25q.34.25.69.48a6.47,6.47,0,0,0,.75.36,1.31,1.31,0,0,0,.38.09c.08,0,.08,0,.24,0l.14,0s.12,0-.05,0a.35.35,0,0,1,.34.36.34.34,0,0,1-.36.34l-1.55-1c-.25-.13-.5-.26-.76-.37l-.38-.16-.18-.06c-.06,0,0,0,0,0l0,0-.05,0a.36.36,0,0,1-.24-.06.31.31,0,0,1-.07-.45A.33.33,0,0,1,499.9,427.35Z" transform="translate(-407.44 -292.17)"/>
    <path class="cls-1" d="M503.26,429.94c-.19-.09-.13,0-.13,0h.06c.06,0,.17.05.16.07l.14.11a1.14,1.14,0,0,0,.3.18,2,2,0,0,0,.35.06c.07,0,.1,0,.22,0l.11,0s.09,0,0,0a.23.23,0,0,1,.22.27.24.24,0,0,1-.27.22c-.17-.05-.15-.08-.18-.11l0-.05-.12-.1a1.91,1.91,0,0,0-.32-.16l-.36-.09-.18,0c-.06,0,0,0,0,0l0,0s0,.06-.22,0a.23.23,0,0,1,0-.32A.24.24,0,0,1,503.26,429.94Z" transform="translate(-407.44 -292.17)"/>
    <path class="cls-1" d="M505.15,430.59c-.19,0-.08,0-.08,0h.12c.1,0,.08.06.14.07a.65.65,0,0,0,.22.11c.08,0,.17,0,.24,0a1.14,1.14,0,0,1,.2.08l.05,0a.07.07,0,0,1,0,.09.06.06,0,0,1-.06,0,1.19,1.19,0,0,1-.27,0c-.08,0-.15-.07-.22-.09a.68.68,0,0,0-.25,0s-.12,0-.09,0h0s0,.06-.2,0a.18.18,0,0,1,.18-.32Z" transform="translate(-407.44 -292.17)"/>
    <path class="cls-1" d="M499.63,428c-.14-.09-.17-.06-.18-.06s0,0,0,0h.08a.38.38,0,0,1,.22.08l.18.15.32.27c.21.18.43.35.65.52a5,5,0,0,0,.71.4,1.33,1.33,0,0,0,.37.12,1,1,0,0,1,.23,0l.14,0s.11,0,0,0a.35.35,0,1,1-.07.69l-1.46-1.06c-.24-.14-.47-.29-.72-.42l-.36-.18a.67.67,0,0,0-.18-.07c-.06,0,0,0,0,0l0,0h-.05a.29.29,0,0,1-.24-.07.33.33,0,0,1,0-.46A.32.32,0,0,1,499.63,428Z" transform="translate(-407.44 -292.17)"/>
    <path class="cls-1" d="M495,426.41h0a.63.63,0,0,0,.42.39h0a8.27,8.27,0,0,0,1.08.41,4,4,0,0,1,1.26.76c.27.19,1.08.42,1.31-.24a6.84,6.84,0,0,0,.47-1.79c.05-.51-.29-.95-.77-.76l-2.23.37-1,.08A.6.6,0,0,0,495,426.41Z" transform="translate(-407.44 -292.17)"/>
    <path class="cls-1" d="M497.1,424.52c0,.61.34.68.75.68s.93-.39.93-.76-.52-.6-.93-.6S497.1,424,497.1,424.52Z" transform="translate(-407.44 -292.17)"/>
  </g>
  <g id="Layer_5" data-name="Layer 5">
    <g>
      <path class="cls-1" d="M479.34,333.18a.7.7,0,0,0-.6.58c-.12.83-.23,1.37-.24,1.42l-1-.21a8.58,8.58,0,0,1,.06-1,.42.42,0,0,0-.42-.46c-.37,0-.72,0-1.15,0a.69.69,0,0,0-.64.64c-.05.6-.09,1-.09,1l-1-.11s.06-.56.13-1.42c-.78,0-1.56.06-2.36.07v1.4h-1v-1.39H471c-.76,0-1.52,0-2.27,0,.06.83.11,1.37.12,1.38l-1,.11s0-.34-.08-.88a.72.72,0,0,0-.64-.67c-.38,0-.92.11-1.27.1s-.35.2-.35.43a6.91,6.91,0,0,0,.1.86l-1,.21c0-.05-.11-.53-.23-1.3a.67.67,0,0,0-.6-.57l-.36-.05a.68.68,0,0,0-.66,1.06,18.2,18.2,0,0,1,1,1.7.71.71,0,0,0,.53.37,62.6,62.6,0,0,0,14.86,0,.69.69,0,0,0,.52-.37,17.75,17.75,0,0,1,1.17-1.91.68.68,0,0,0-.66-1.06Z" transform="translate(-407.44 -292.17)"/>
      <path class="cls-1" d="M493.6,308.59a37.06,37.06,0,0,0-.4-4.51c-.93-4.77-6.27-10.12-11.05-11a62.78,62.78,0,0,0-20.83,0c-4.78.92-10.12,6.27-11,11a35,35,0,0,0-.41,4.51,4.77,4.77,0,0,0,.36,2.07,20.16,20.16,0,0,1,1.55,7,8.36,8.36,0,0,1-.58,3.11,4.8,4.8,0,0,0,2.07,6,4.6,4.6,0,0,0,.55.25,19.06,19.06,0,0,1,6.8,4.6.68.68,0,0,0,.34.19c.72.16,1.51.29,2.38.4a.67.67,0,0,0,.76-.73c0-.49,0-1.53,0-1.53l.95-.06c0,.69.06,1.35.12,2a.67.67,0,0,0,.63.6l1.1.08a.69.69,0,0,0,.72-.72c0-.59,0-1.23,0-1.9h1c0,.73,0,1.43.06,2.07a.69.69,0,0,0,.67.65l1.09,0a.69.69,0,0,0,.69-.69v-2.05h1v2a.69.69,0,0,0,.71.68l1.09,0a.69.69,0,0,0,.66-.65c0-.64.05-1.33.06-2h1c0,.64,0,1.26-.05,1.83a.68.68,0,0,0,.73.72l1.11-.09a.67.67,0,0,0,.61-.61c.06-.59.11-1.22.12-1.87l1,0c0,.5,0,1-.08,1.43a.7.7,0,0,0,.8.73,16.86,16.86,0,0,0,3.35-.8.6.6,0,0,0,.21-.14,19.71,19.71,0,0,1,6.32-4.07l.06,0a4.65,4.65,0,0,0,2.61-6.08,8.4,8.4,0,0,1-.67-3.32,20,20,0,0,1,1.56-7A4.91,4.91,0,0,0,493.6,308.59Z" transform="translate(-407.44 -292.17)"/>
    </g>
    <circle class="cls-2" cx="55.34" cy="25.14" r="6.81"/>
    <circle class="cls-2" cx="72.89" cy="25.14" r="6.81"/>
  </g>
</svg>
